<svg id="Layer_1" data-name="Layer 1" xmlns="http://www.w3.org/2000/svg" viewBox="0 0 100 100"><defs><style>.cls-1{fill:#ffcc3d;}.cls-2{fill:#fff;}.cls-3{fill:#6079ff;}</style></defs><path class="cls-1" d="M27.33,94.17c-13.18,4.64-28.18-8-15.85-36.83S54,27.69,71.87,48.7,84.12,94,68,91.94,40.51,89.53,27.33,94.17Z"/><path class="cls-1" d="M6.46,16.33C.92,20.67,1.52,29.6,5.55,34.86S16,42.83,23.41,38s5.32-13.31.74-19.16S12,12,6.46,16.33Z"/><path class="cls-2" d="M27.05,48.66c-4.13,1-6,6.09-5.1,10s3.82,7,9.1,6.08,6.25-6,5.16-10.36A7.44,7.44,0,0,0,27.05,48.66Z"/><path d="M26,53.71c-1.84,1.44-1.74,4.26-.49,5.89s3.29,2.42,5.72.79,1.86-4.28.45-6.09A3.94,3.94,0,0,0,26,53.71Z"/><path class="cls-1" d="M45.89,31.25c6.9,0,12.25-2.5,12.25-10.29S53.87,4.71,45.89,4.9,34.38,10.78,34.38,18.56,39,31.25,45.89,31.25Z"/><path class="cls-2" d="M51.6,62.8c4.31,0,7.65-1.51,7.65-6.23s-2.67-9.84-7.65-9.73-7.19,3.56-7.19,8.28S47.29,62.8,51.6,62.8Z"/><path d="M49,51.18c-2,1.17-2.24,4.07-1.19,5.94a4.25,4.25,0,0,0,5.66,1.73c2.41-1.06,2.38-4.07,1.17-6.15A4,4,0,0,0,49,51.18Z"/><path class="cls-3" d="M71.66,41.46c2.8,5.15,7.92,8,14.88,6S100,37,96.71,29,84.59,18.46,77.42,22.73,68.85,36.3,71.66,41.46Z"/><path class="cls-2" d="M76.34,30.56c-1.92.82-2.45,3.41-1.71,5.22A3.65,3.65,0,0,0,79.5,38c2.49-.83,2.57-3.4,1.71-5.42A3.65,3.65,0,0,0,76.34,30.56Z"/><path d="M76.22,33.09A2.14,2.14,0,0,0,76.43,36a1.92,1.92,0,0,0,2.84,0c1-1,.57-2.22-.25-3A1.93,1.93,0,0,0,76.22,33.09Z"/><path class="cls-2" d="M89.4,27.9a3.59,3.59,0,0,0-4.55,2.81,3.85,3.85,0,0,0,3.48,5c2.36.13,3.52-1.55,3.69-4A3.41,3.41,0,0,0,89.4,27.9Z"/><path d="M88.09,30.08a2.14,2.14,0,0,0-1.54,2.4,2,2,0,0,0,2.14,1.71,2.14,2.14,0,0,0,1.56-2.5A1.83,1.83,0,0,0,88.09,30.08Z"/></svg>