<svg id="Layer_1" data-name="Layer 1" xmlns="http://www.w3.org/2000/svg" viewBox="0 0 100 100"><defs><style>.cls-1{fill:#ffcc3d;}.cls-2{fill:#6079ff;}</style></defs><path class="cls-1" d="M27.33,94.17c-13.18,4.64-28.18-8-15.85-36.83S54,27.69,71.87,48.7,84.12,94,68,91.94,40.51,89.53,27.33,94.17Z"/><path class="cls-1" d="M6.46,16.33C.92,20.67,1.52,29.6,5.55,34.86S16,42.83,23.41,38s5.32-13.31.74-19.16S12,12,6.46,16.33Z"/><path class="cls-1" d="M45.89,31.25c6.9,0,12.25-2.5,12.25-10.29S53.87,4.71,45.89,4.9,34.38,10.78,34.38,18.56,39,31.25,45.89,31.25Z"/><path class="cls-2" d="M71.66,41.46c2.8,5.15,7.92,8,14.88,6S100,37,96.71,29,84.59,18.46,77.42,22.73,68.85,36.3,71.66,41.46Z"/></svg>